<svg xmlns="http://www.w3.org/2000/svg"  viewBox="0 0 48 48" width="48px" height="48px"><path d="M 24 4.1621094 C 23.560194 4.1621299 23.119943 4.278411 22.728516 4.5097656 L 7.7363281 13.367188 A 1.5008125 1.5008125 0 1 0 9.2636719 15.951172 L 24.001953 7.2421875 L 38 15.515625 L 38 23.878906 L 35.560547 21.439453 A 1.50015 1.50015 0 0 0 34.484375 20.984375 A 1.50015 1.50015 0 0 0 33.439453 23.560547 L 38.439453 28.560547 A 1.50015 1.50015 0 0 0 40.560547 28.560547 L 45.560547 23.560547 A 1.50015 1.50015 0 1 0 43.439453 21.439453 L 41 23.878906 L 41 15.230469 C 41 14.34822 40.530701 13.526505 39.773438 13.078125 A 1.50015 1.50015 0 0 0 39.771484 13.078125 L 25.271484 4.5097656 A 1.50015 1.50015 0 0 0 25.269531 4.5078125 C 24.878613 4.2774368 24.439806 4.1620888 24 4.1621094 z M 8.4785156 19 A 1.50015 1.50015 0 0 0 7.4394531 19.439453 L 2.4394531 24.439453 A 1.50015 1.50015 0 1 0 4.5605469 26.560547 L 7 24.121094 L 7 32.769531 C 7 33.65178 7.469299 34.473495 8.2265625 34.921875 A 1.50015 1.50015 0 0 0 8.2285156 34.921875 L 22.728516 43.490234 A 1.50015 1.50015 0 0 0 22.730469 43.492188 C 23.51249 43.952933 24.48863 43.95299 25.271484 43.490234 L 30.697266 40.285156 A 1.500327 1.500327 0 0 0 29.171875 37.701172 L 24 40.757812 L 10 32.484375 L 10 24.121094 L 12.439453 26.560547 A 1.50015 1.50015 0 1 0 14.560547 24.439453 L 9.5605469 19.439453 A 1.50015 1.50015 0 0 0 8.4785156 19 z M 39.550781 31.830078 A 1.50015 1.50015 0 0 0 38.736328 32.048828 L 34.646484 34.466797 A 1.50015 1.50015 0 1 0 36.171875 37.048828 L 40.263672 34.632812 A 1.50015 1.50015 0 0 0 39.550781 31.830078 z"/></svg>