<svg xmlns="http://www.w3.org/2000/svg"  viewBox="0 0 48 48" width="48px" height="48px"><path fill="none" stroke="#000" stroke-linecap="round" stroke-linejoin="round" stroke-miterlimit="10" stroke-width="3" d="M9.5,19v-6.3V8.5c0-1.7,1.3-3,3-3h25c0.6,0,1,0.4,1,1v24.4"/><path fill="none" stroke="#000" stroke-linecap="round" stroke-linejoin="round" stroke-miterlimit="10" stroke-width="3" d="M38.5,42.5h-26c-1.7,0-3-1.3-3-3V24.8"/><path fill="none" stroke="#000" stroke-linecap="round" stroke-linejoin="round" stroke-miterlimit="10" stroke-width="3" d="M27.5,42.5h-15c-1.7,0-3-1.3-3-3v0c0-1.7,1.3-3,3-3h26"/><path fill="none" stroke="#000" stroke-miterlimit="10" stroke-width="3" d="M24,12.5c-1.9,0-3.5,1.6-3.5,3.5s1.6,3.5,3.5,3.5s3.5-1.6,3.5-3.5S25.9,12.5,24,12.5z"/><path fill="none" stroke="#000" stroke-linecap="round" stroke-linejoin="round" stroke-miterlimit="10" stroke-width="3" d="M18.6,26v-0.6c0-3,2.4-5.4,5.4-5.4h0c3,0,5.4,2.4,5.4,5.4V26"/></svg>